<?xml version="1.0" encoding="UTF-8" standalone="no"?>
<!-- Created with Inkscape (http://www.inkscape.org/) -->

<svg
   xmlns:dc="http://purl.org/dc/elements/1.1/"
   xmlns:cc="http://creativecommons.org/ns#"
   xmlns:rdf="http://www.w3.org/1999/02/22-rdf-syntax-ns#"
   xmlns:svg="http://www.w3.org/2000/svg"
   xmlns="http://www.w3.org/2000/svg"
   version="1.1"
   width="715.74799"
   height="209.76378"
   id="svg3216">
  <defs
     id="defs3218">
    <clipPath
       id="clipPath3147">
      <path
         d="m 260.124,50.07 91.751,0 0,26.25 -91.751,0 0,-26.25 z"
         id="path3149" />
    </clipPath>
  </defs>
  <metadata
     id="metadata3221">
    <rdf:RDF>
      <cc:Work
         rdf:about="">
        <dc:format>image/svg+xml</dc:format>
        <dc:type
           rdf:resource="http://purl.org/dc/dcmitype/StillImage" />
        <dc:title></dc:title>
      </cc:Work>
    </rdf:RDF>
  </metadata>
  <g
     transform="translate(-21.655426,-353.67862)"
     id="layer1">
    <g
       transform="matrix(6.1790035,0,0,6.1790035,-1606.6939,-2492.3524)"
       id="g3271">
      <g
         transform="matrix(1.25,0,0,-1.25,-61.052244,556.56495)"
         id="g3143">
        <g
           clip-path="url(#clipPath3147)"
           id="g3145">
          <g
             transform="translate(265.9921,58.4443)"
             id="g3151">
            <path
               d="m 0,0 c -1.951,0 -3.242,-1.246 -3.242,-3.122 0,-1.876 1.291,-3.121 3.242,-3.121 1.936,0 3.227,1.245 3.227,3.121 C 3.227,-1.246 1.936,0 0,0 m 0,-8.374 c -3.752,0 -5.868,2.641 -5.868,5.252 0,2.477 2.011,5.253 5.868,5.253 3.857,0 5.853,-2.791 5.853,-5.253 0,-2.626 -2.176,-5.252 -5.853,-5.252"
               id="path3153"
               style="fill:#5788c2;fill-opacity:1;fill-rule:nonzero;stroke:none" />
          </g>
          <g
             transform="translate(284.8157,55.5027)"
             id="g3155">
            <path
               d="m 0,0 4.442,-5.298 -3.302,0 -2.776,3.377 -2.731,-3.377 -3.257,0 4.337,5.298 -4.097,4.937 3.302,0 2.446,-3.016 2.401,3.016 3.242,0 L 0,0 z"
               id="path3157"
               style="fill:#5788c2;fill-opacity:1;fill-rule:nonzero;stroke:none" />
          </g>
          <g
             transform="translate(302.1839,58.5641)"
             id="g3159">
            <path
               d="m 0,0 -4.503,0 0,-2.281 4.503,0 0,-1.876 -4.503,0 0,-4.202 -2.551,0 0,10.235 L 0,1.876 0,0 z"
               id="path3161"
               style="fill:#5788c2;fill-opacity:1;fill-rule:nonzero;stroke:none" />
          </g>
          <g
             transform="translate(314.139,58.4443)"
             id="g3163">
            <path
               d="m 0,0 c -1.952,0 -3.242,-1.246 -3.242,-3.122 0,-1.876 1.29,-3.121 3.242,-3.121 1.935,0 3.226,1.245 3.226,3.121 C 3.226,-1.246 1.935,0 0,0 m 0,-8.374 c -3.753,0 -5.869,2.641 -5.869,5.252 0,2.477 2.011,5.253 5.869,5.253 3.857,0 5.852,-2.791 5.852,-5.253 0,-2.626 -2.175,-5.252 -5.852,-5.252"
               id="path3165"
               style="fill:#5788c2;fill-opacity:1;fill-rule:nonzero;stroke:none" />
          </g>
          <g
             transform="translate(328.8996,56.2378)"
             id="g3167">
            <path
               d="m 0,0 1.351,0 c 0.705,0 1.396,0.3 1.396,1.17 0,0.766 -0.496,1.156 -1.455,1.156 L 0,2.326 0,0 z m 2.027,4.202 c 2.101,0 3.346,-1.41 3.346,-2.941 0,-1.126 -0.585,-1.966 -1.756,-2.507 1.05,-0.525 1.366,-1.785 2.807,-4.787 l -2.807,0 c -1.096,2.191 -1.5,4.158 -2.881,4.158 l -0.736,0 0,-4.158 -2.551,0 0,10.235 4.578,0 z"
               id="path3169"
               style="fill:#5788c2;fill-opacity:1;fill-rule:nonzero;stroke:none" />
          </g>
          <g
             transform="translate(344.2522,52.0806)"
             id="g3171">
            <path
               d="m 0,0 1.666,0 c 2.566,0 3.331,1.741 3.331,3.242 0,1.756 -0.945,3.242 -3.361,3.242 L 0,6.484 0,0 z m 1.966,8.359 c 3.737,0 5.658,-2.326 5.658,-5.132 0,-2.941 -1.861,-5.103 -5.943,-5.103 l -4.232,0 0,10.235 4.517,0 z"
               id="path3173"
               style="fill:#5788c2;fill-opacity:1;fill-rule:nonzero;stroke:none" />
          </g>
          <path
             d="m 275.072,50.231 -0.954,0 0,18.38 0.954,0 0,-18.38 z"
             id="path3175"
             style="fill:#5788c2;fill-opacity:1;fill-rule:nonzero;stroke:none" />
          <path
             d="m 292.034,50.231 -0.954,0 0,21.783 0.954,0 0,-21.783 z"
             id="path3177"
             style="fill:#5788c2;fill-opacity:1;fill-rule:nonzero;stroke:none" />
          <path
             d="m 306.109,50.231 -0.954,0 0,14.359 0.954,0 0,-14.359 z"
             id="path3179"
             style="fill:#5788c2;fill-opacity:1;fill-rule:nonzero;stroke:none" />
          <path
             d="m 322.982,50.207 -0.954,0 0,26.113 0.954,0 0,-26.113 z"
             id="path3181"
             style="fill:#5788c2;fill-opacity:1;fill-rule:nonzero;stroke:none" />
          <path
             d="m 338.49,50.207 -0.954,0 0,16.834 0.954,0 0,-16.834 z"
             id="path3183"
             style="fill:#5788c2;fill-opacity:1;fill-rule:nonzero;stroke:none" />
        </g>
      </g>
    </g>
  </g>
</svg>
