<?xml version="1.0" encoding="utf-8"?>
<!-- Generator: Adobe Illustrator 16.0.0, SVG Export Plug-In . SVG Version: 6.00 Build 0)  -->
<!DOCTYPE svg PUBLIC "-//W3C//DTD SVG 1.1//EN" "http://www.w3.org/Graphics/SVG/1.1/DTD/svg11.dtd">
<svg version="1.1" id="Layer_1" xmlns="http://www.w3.org/2000/svg" xmlns:xlink="http://www.w3.org/1999/xlink" x="0px" y="0px"
	 width="96.263px" height="40.086px" viewBox="0 0 96.263 40.086" enable-background="new 0 0 96.263 40.086" xml:space="preserve">
<g>
	<g>
		<path fill="#FFBC1A" d="M0.405,20.721c0.432,0.715,10.807,17.527,30.447,17.527c19.65,0,29.72-16.828,30.139-17.543l0.395-0.672
			l-0.403-0.668C60.55,18.648,50.172,1.838,30.534,1.838c-19.653,0-29.721,16.828-30.141,17.543L0,20.053L0.405,20.721z"/>
		<path fill="#027D12" d="M30.692,33.785c7.578,0,13.744-6.164,13.744-13.742c0-7.576-6.166-13.742-13.744-13.742
			S16.95,12.467,16.95,20.043C16.95,27.621,23.114,33.785,30.692,33.785"/>
		<path fill="#02A8AB" d="M30.692,25.143c2.816,0,5.102-2.281,5.102-5.1c0-2.816-2.285-5.1-5.102-5.1s-5.1,2.283-5.1,5.1
			C25.593,22.861,27.876,25.143,30.692,25.143"/>
		<path fill="#02A8AB" d="M66.87,29.48c0.188,0,0.381,0.031,0.567,0.098l20.009,7.291c0.859,0.314,1.306,1.266,0.991,2.125
			c-0.314,0.863-1.271,1.305-2.126,0.992l-20.009-7.289c-0.859-0.314-1.306-1.268-0.991-2.127
			C65.558,29.896,66.192,29.48,66.87,29.48z"/>
		<path fill="#FFBC1A" d="M86.173,0c0.625,0,1.223,0.354,1.505,0.957c0.386,0.83,0.026,1.818-0.802,2.203l-19.305,8.994
			c-0.828,0.389-1.816,0.027-2.204-0.805c-0.388-0.828-0.027-1.814,0.802-2.201l19.303-8.994C85.7,0.049,85.938,0,86.173,0z"/>
	</g>
</g>
<path fill="#027D12" d="M95.306,18.671c0.564,0.264,0.957,0.837,0.957,1.502c-0.003,0.917-0.746,1.659-1.66,1.658l-21.297-0.036
	c-0.914,0.002-1.655-0.746-1.654-1.662c-0.001-0.914,0.744-1.656,1.658-1.654l21.296,0.034
	C94.856,18.514,95.093,18.57,95.306,18.671z"/>
</svg>
