<?xml version="1.0" encoding="utf-8"?>
<!-- Generator: Adobe Illustrator 16.0.0, SVG Export Plug-In . SVG Version: 6.00 Build 0)  -->
<!DOCTYPE svg PUBLIC "-//W3C//DTD SVG 1.1//EN" "http://www.w3.org/Graphics/SVG/1.1/DTD/svg11.dtd">
<svg version="1.1" id="Layer_1" xmlns="http://www.w3.org/2000/svg" xmlns:xlink="http://www.w3.org/1999/xlink" x="0px" y="0px"
	 width="52.321px" height="52.035px" viewBox="0 0 52.321 52.035" enable-background="new 0 0 52.321 52.035" xml:space="preserve">
<g>
	<path fill="#FFBC1A" d="M51.649,44.391L7.645,0.312c-0.417-0.416-1.154-0.416-1.569,0L0.325,6.066
		c-0.433,0.432-0.433,1.133,0,1.566L44.33,51.709c0.216,0.217,0.501,0.326,0.784,0.326s0.566-0.109,0.782-0.326l5.753-5.75
		C52.083,45.525,52.083,44.824,51.649,44.391z"/>
	<path fill="#02A8AB" d="M51.21,37.842c0,0-0.008,0-0.014,0H3.876c-0.613,0-1.111-0.496-1.111-1.109
		c0-13.658,11.112-24.77,24.771-24.77c13.596,0,24.671,11.01,24.771,24.584c0.01,0.061,0.014,0.123,0.014,0.186
		C52.321,37.346,51.825,37.842,51.21,37.842z"/>
	<path fill="#027D12" d="M20.3,13.033c-3.509,1.066-6.689,2.891-9.351,5.285l19.491,19.523h14.628L20.3,13.033z"/>
</g>
</svg>
